<svg width="234" height="80" viewBox="0 0 234 80" fill="none" xmlns="http://www.w3.org/2000/svg">
<path fill-rule="evenodd" clip-rule="evenodd" d="M193.53 0.067688C192.149 0.067688 191.03 1.18698 191.03 2.56769C191.03 3.9484 192.149 5.06769 193.53 5.06769H193.88V10.9217H185C180.582 10.9217 177 14.5034 177 18.9217V63.0705C177 67.4888 180.582 71.0705 185 71.0705H187.04V73.2981C187.04 74.6788 188.159 75.7981 189.54 75.7981C190.921 75.7981 192.04 74.6788 192.04 73.2981V71.0705H218.96V73.2981C218.96 74.6788 220.079 75.7981 221.46 75.7981C222.841 75.7981 223.96 74.6788 223.96 73.2981V71.0705H226C230.418 71.0705 234 67.4888 234 63.0705V18.9217C234 14.5034 230.418 10.9217 226 10.9217H215.98V5.06769H216.33C217.711 5.06769 218.83 3.9484 218.83 2.56769C218.83 1.18698 217.711 0.067688 216.33 0.067688H193.53ZM210.98 5.06769H198.88V10.9217H210.98V5.06769Z" fill="white"/>
<path d="M2.60121 27.7679V21.1415H37.4165V27.7679H23.9293V64.7779H16.0884V27.7679H2.60121ZM40.3888 64.7779V32.0506H47.8675V37.5051H48.2085C48.805 35.6159 49.8278 34.16 51.2766 33.1372C52.7397 32.1003 54.4087 31.5818 56.2837 31.5818C56.7099 31.5818 57.1857 31.6031 57.7113 31.6458C58.2511 31.6742 58.6985 31.7239 59.0536 31.7949V38.8901C58.7269 38.7764 58.2085 38.677 57.4982 38.5918C56.8022 38.4924 56.1275 38.4426 55.4741 38.4426C54.0678 38.4426 52.8036 38.748 51.6815 39.3588C50.5735 39.9554 49.6999 40.7864 49.0607 41.8517C48.4215 42.9171 48.1019 44.1458 48.1019 45.5378V64.7779H40.3888ZM73.0096 65.4384C70.9357 65.4384 69.0678 65.0691 67.4059 64.3304C65.7582 63.5776 64.4513 62.4696 63.4854 61.0066C62.5337 59.5435 62.0579 57.7395 62.0579 55.5946C62.0579 53.748 62.3988 52.221 63.0806 51.0137C63.7624 49.8063 64.6928 48.8404 65.8718 48.1159C67.0508 47.3915 68.3789 46.8446 69.8562 46.4753C71.3477 46.0918 72.8888 45.8148 74.4798 45.6443C76.3974 45.4455 77.9528 45.2679 79.146 45.1117C80.3391 44.9412 81.2056 44.6855 81.7454 44.3446C82.2994 43.9895 82.5764 43.4426 82.5764 42.704V42.5762C82.5764 40.971 82.1005 39.7281 81.1488 38.8475C80.1971 37.9668 78.8263 37.5264 77.0366 37.5264C75.1474 37.5264 73.6488 37.9384 72.5408 38.7622C71.4471 39.5861 70.7085 40.5591 70.3249 41.6813L63.1232 40.6585C63.6914 38.6699 64.6289 37.008 65.9357 35.6727C67.2425 34.3233 68.8406 33.3148 70.7298 32.6472C72.619 31.9654 74.707 31.6245 76.994 31.6245C78.5707 31.6245 80.1403 31.8091 81.7028 32.1784C83.2653 32.5477 84.6928 33.1585 85.9854 34.0108C87.2781 34.8489 88.315 35.9924 89.0962 37.4412C89.8917 38.8901 90.2894 40.7012 90.2894 42.8745V64.7779H82.8746V60.2821H82.619C82.1502 61.1912 81.4897 62.0435 80.6374 62.8389C79.7994 63.6202 78.7411 64.2523 77.4627 64.7352C76.1985 65.204 74.7141 65.4384 73.0096 65.4384ZM75.0124 59.7708C76.5607 59.7708 77.9031 59.4654 79.0394 58.8546C80.1758 58.2296 81.0494 57.4057 81.6602 56.383C82.2852 55.3602 82.5977 54.2452 82.5977 53.0378V49.1813C82.3562 49.3801 81.9442 49.5648 81.3619 49.7352C80.7937 49.9057 80.1545 50.0549 79.4442 50.1827C78.734 50.3105 78.0309 50.4242 77.3349 50.5236C76.6388 50.623 76.0352 50.7083 75.5238 50.7793C74.3732 50.9355 73.3434 51.1912 72.4343 51.5463C71.5252 51.9014 70.8079 52.3986 70.2823 53.0378C69.7567 53.6628 69.494 54.4725 69.494 55.4668C69.494 56.8872 70.0124 57.9597 71.0494 58.6841C72.0863 59.4085 73.4073 59.7708 75.0124 59.7708ZM126.106 32.0506L114.451 64.7779H105.929L94.2738 32.0506H102.498L110.02 56.3617H110.36L117.903 32.0506H126.106ZM144.819 65.4171C141.538 65.4171 138.704 64.7352 136.317 63.3716C133.945 61.9938 132.12 60.0477 130.842 57.5335C129.563 55.0051 128.924 52.0293 128.924 48.606C128.924 45.2395 129.563 42.285 130.842 39.7424C132.134 37.1855 133.938 35.1969 136.254 33.7764C138.569 32.3418 141.289 31.6245 144.414 31.6245C146.431 31.6245 148.335 31.9512 150.124 32.6046C151.928 33.2438 153.519 34.2381 154.897 35.5875C156.289 36.937 157.383 38.6557 158.178 40.7438C158.974 42.8176 159.371 45.2892 159.371 48.1585V50.5236H132.546V45.3247H151.978C151.964 43.8475 151.644 42.5335 151.019 41.383C150.394 40.2182 149.521 39.302 148.398 38.6344C147.29 37.9668 145.998 37.633 144.521 37.633C142.944 37.633 141.559 38.0165 140.366 38.7835C139.173 39.5364 138.242 40.5307 137.575 41.7665C136.921 42.9881 136.587 44.3304 136.573 45.7935V50.3318C136.573 52.2352 136.921 53.8688 137.617 55.2324C138.313 56.5818 139.286 57.6188 140.536 58.3432C141.786 59.0534 143.249 59.4085 144.925 59.4085C146.048 59.4085 147.063 59.2523 147.972 58.9398C148.881 58.6131 149.67 58.1372 150.337 57.5122C151.005 56.8872 151.509 56.1131 151.85 55.1898L159.052 55.9995C158.597 57.9029 157.731 59.5648 156.452 60.9852C155.188 62.3915 153.569 63.4852 151.594 64.2665C149.62 65.0335 147.362 65.4171 144.819 65.4171ZM173.61 21.1415V64.7779H165.897V21.1415H173.61Z" fill="white"/>
<path d="M181.541 64.7779V32.0506H189.254V64.7779H181.541ZM185.419 27.4057C184.197 27.4057 183.146 27.0009 182.266 26.1912C181.385 25.3673 180.945 24.3801 180.945 23.2296C180.945 22.0648 181.385 21.0776 182.266 20.2679C183.146 19.4441 184.197 19.0321 185.419 19.0321C186.655 19.0321 187.706 19.4441 188.572 20.2679C189.453 21.0776 189.893 22.0648 189.893 23.2296C189.893 24.3801 189.453 25.3673 188.572 26.1912C187.706 27.0009 186.655 27.4057 185.419 27.4057ZM204.899 45.6017V64.7779H197.186V32.0506H204.558V37.6117H204.941C205.694 35.7793 206.895 34.3233 208.542 33.2438C210.204 32.1642 212.257 31.6245 214.7 31.6245C216.958 31.6245 218.926 32.1074 220.602 33.0733C222.292 34.0392 223.599 35.4384 224.522 37.2708C225.46 39.1031 225.922 41.3262 225.907 43.9398V64.7779H218.194V45.133C218.194 42.9455 217.626 41.2338 216.49 39.998C215.368 38.7622 213.812 38.1443 211.824 38.1443C210.474 38.1443 209.274 38.4426 208.223 39.0392C207.186 39.6216 206.369 40.4668 205.772 41.5747C205.19 42.6827 204.899 44.025 204.899 45.6017Z" fill="#336749"/>
</svg>
