<svg width="28" height="24" viewBox="0 0 28 24" fill="none" xmlns="http://www.w3.org/2000/svg">
<path d="M22.8365 9C24.4014 9 27.124 10.3594 27.124 12C27.124 13.6875 24.4014 15 22.8365 15H17.5011L12.9025 23.2453C12.6416 23.7141 12.1566 24 11.6304 24H9.0588C8.57377 24 8.22143 23.5219 8.35413 23.0438L10.5963 15H5.89235L3.9156 17.7C3.77833 17.8875 3.55869 18 3.3299 18H1.40807C1.05116 18 0.767456 17.7047 0.767456 17.3438C0.767456 17.2828 0.776608 17.2219 0.790335 17.1609L2.23171 12L0.790335 6.83906C0.772032 6.77812 0.767456 6.71719 0.767456 6.65625C0.767456 6.29062 1.05573 6 1.40807 6H3.3299C3.55869 6 3.77833 6.1125 3.9156 6.3L5.89235 9H10.6008L8.3587 0.95625C8.22143 0.478125 8.57377 0 9.0588 0H11.6304C12.1566 0 12.6416 0.290625 12.9025 0.754688L17.5011 9H22.8365Z" fill="white"/>
</svg>
