<svg width="18" height="18" viewBox="0 0 18 18" fill="none" xmlns="http://www.w3.org/2000/svg">
<path d="M9.00417 17.3358C4.40167 17.3358 0.670837 13.605 0.670837 9.00249C0.670837 4.39999 4.40167 0.669159 9.00417 0.669159C13.6067 0.669159 17.3375 4.39999 17.3375 9.00249C17.3375 13.605 13.6067 17.3358 9.00417 17.3358ZM9.00417 15.6692C10.7723 15.6692 12.468 14.9668 13.7182 13.7165C14.9685 12.4663 15.6708 10.7706 15.6708 9.00249C15.6708 7.23438 14.9685 5.53869 13.7182 4.28845C12.468 3.0382 10.7723 2.33583 9.00417 2.33583C7.23606 2.33583 5.54037 3.0382 4.29013 4.28845C3.03988 5.53869 2.3375 7.23438 2.3375 9.00249C2.3375 10.7706 3.03988 12.4663 4.29013 13.7165C5.54037 14.9668 7.23606 15.6692 9.00417 15.6692ZM9.00417 4.87749L13.1292 9.00249L9.00417 13.1275L4.87917 9.00249L9.00417 4.87749ZM9.00417 7.23416L7.23667 9.00249L9.00334 10.77L10.7717 9.00249L9.00417 7.23416Z" fill="#FFC107"/>
</svg>
